<mxfile host="Electron" agent="Mozilla/5.0 (Windows NT 10.0; Win64; x64) AppleWebKit/537.36 (KHTML, like Gecko) draw.io/25.0.2 Chrome/128.0.6613.186 Electron/32.2.5 Safari/537.36" version="25.0.2">
  <diagram name="Page-1" id="0NqRDMZAXWw_qfSmM8XS">
    <mxGraphModel dx="4897" dy="4057" grid="0" gridSize="10" guides="0" tooltips="1" connect="1" arrows="1" fold="1" page="0" pageScale="1" pageWidth="827" pageHeight="1169" math="0" shadow="0">
      <root>
        <mxCell id="0" />
        <mxCell id="1" parent="0" />
        <mxCell id="6dfBTm71OyUCT0kCx_6O-8" style="rounded=0;orthogonalLoop=1;jettySize=auto;html=1;exitX=1;exitY=0.3333333333333333;exitDx=0;exitDy=0;exitPerimeter=0;entryX=0;entryY=0.5;entryDx=0;entryDy=0;" parent="1" source="6dfBTm71OyUCT0kCx_6O-2" target="6dfBTm71OyUCT0kCx_6O-6" edge="1">
          <mxGeometry relative="1" as="geometry" />
        </mxCell>
        <mxCell id="nAx7xvZWWUwr8eBIahOH-26" style="rounded=0;orthogonalLoop=1;jettySize=auto;html=1;entryX=0;entryY=0.5;entryDx=0;entryDy=0;exitX=1;exitY=0.3333333333333333;exitDx=0;exitDy=0;exitPerimeter=0;" parent="1" source="6dfBTm71OyUCT0kCx_6O-2" target="nAx7xvZWWUwr8eBIahOH-25" edge="1">
          <mxGeometry relative="1" as="geometry" />
        </mxCell>
        <mxCell id="nAx7xvZWWUwr8eBIahOH-87" style="rounded=0;orthogonalLoop=1;jettySize=auto;html=1;entryX=0;entryY=0.5;entryDx=0;entryDy=0;exitX=1;exitY=0.3333333333333333;exitDx=0;exitDy=0;exitPerimeter=0;" parent="1" source="6dfBTm71OyUCT0kCx_6O-2" target="nAx7xvZWWUwr8eBIahOH-86" edge="1">
          <mxGeometry relative="1" as="geometry" />
        </mxCell>
        <mxCell id="6dfBTm71OyUCT0kCx_6O-2" value="&lt;font style=&quot;font-size: 16px;&quot;&gt;社会组织管理员&lt;/font&gt;&lt;div&gt;&lt;font style=&quot;font-size: 16px;&quot;&gt;（政府人员）1&lt;/font&gt;&lt;/div&gt;" style="shape=umlActor;verticalLabelPosition=bottom;verticalAlign=top;html=1;outlineConnect=0;" parent="1" vertex="1">
          <mxGeometry x="-310" y="-438" width="30" height="60" as="geometry" />
        </mxCell>
        <mxCell id="nAx7xvZWWUwr8eBIahOH-15" style="rounded=0;orthogonalLoop=1;jettySize=auto;html=1;entryX=0;entryY=0.5;entryDx=0;entryDy=0;exitX=1;exitY=0.3333333333333333;exitDx=0;exitDy=0;exitPerimeter=0;" parent="1" source="6dfBTm71OyUCT0kCx_6O-3" target="nAx7xvZWWUwr8eBIahOH-14" edge="1">
          <mxGeometry relative="1" as="geometry" />
        </mxCell>
        <mxCell id="nAx7xvZWWUwr8eBIahOH-18" style="rounded=0;orthogonalLoop=1;jettySize=auto;html=1;entryX=0;entryY=0.5;entryDx=0;entryDy=0;exitX=1;exitY=0.3333333333333333;exitDx=0;exitDy=0;exitPerimeter=0;" parent="1" source="6dfBTm71OyUCT0kCx_6O-3" target="nAx7xvZWWUwr8eBIahOH-17" edge="1">
          <mxGeometry relative="1" as="geometry" />
        </mxCell>
        <mxCell id="nAx7xvZWWUwr8eBIahOH-64" style="rounded=0;orthogonalLoop=1;jettySize=auto;html=1;entryX=0;entryY=0.5;entryDx=0;entryDy=0;exitX=1;exitY=0.383;exitDx=0;exitDy=0;exitPerimeter=0;" parent="1" source="6dfBTm71OyUCT0kCx_6O-3" target="nAx7xvZWWUwr8eBIahOH-62" edge="1">
          <mxGeometry relative="1" as="geometry" />
        </mxCell>
        <mxCell id="nAx7xvZWWUwr8eBIahOH-65" style="rounded=0;orthogonalLoop=1;jettySize=auto;html=1;entryX=0;entryY=0.5;entryDx=0;entryDy=0;exitX=1;exitY=0.3333333333333333;exitDx=0;exitDy=0;exitPerimeter=0;" parent="1" source="6dfBTm71OyUCT0kCx_6O-3" target="nAx7xvZWWUwr8eBIahOH-63" edge="1">
          <mxGeometry relative="1" as="geometry" />
        </mxCell>
        <mxCell id="nAx7xvZWWUwr8eBIahOH-67" style="rounded=0;orthogonalLoop=1;jettySize=auto;html=1;entryX=0;entryY=0.5;entryDx=0;entryDy=0;exitX=1;exitY=0.3333333333333333;exitDx=0;exitDy=0;exitPerimeter=0;" parent="1" source="6dfBTm71OyUCT0kCx_6O-3" target="nAx7xvZWWUwr8eBIahOH-66" edge="1">
          <mxGeometry relative="1" as="geometry" />
        </mxCell>
        <mxCell id="6dfBTm71OyUCT0kCx_6O-3" value="&lt;font style=&quot;font-size: 16px;&quot;&gt;专家&lt;/font&gt;&lt;div&gt;&lt;font style=&quot;font-size: 16px;&quot;&gt;(内部）3&lt;/font&gt;&lt;/div&gt;" style="shape=umlActor;verticalLabelPosition=bottom;verticalAlign=top;html=1;outlineConnect=0;" parent="1" vertex="1">
          <mxGeometry x="-309" y="-48" width="30" height="60" as="geometry" />
        </mxCell>
        <mxCell id="nAx7xvZWWUwr8eBIahOH-1" style="rounded=0;orthogonalLoop=1;jettySize=auto;html=1;entryX=1;entryY=0.5;entryDx=0;entryDy=0;exitX=0;exitY=0.3333333333333333;exitDx=0;exitDy=0;exitPerimeter=0;" parent="1" source="6dfBTm71OyUCT0kCx_6O-4" target="6dfBTm71OyUCT0kCx_6O-7" edge="1">
          <mxGeometry relative="1" as="geometry" />
        </mxCell>
        <mxCell id="nAx7xvZWWUwr8eBIahOH-8" style="rounded=0;orthogonalLoop=1;jettySize=auto;html=1;entryX=1;entryY=0.5;entryDx=0;entryDy=0;exitX=0;exitY=0.3333333333333333;exitDx=0;exitDy=0;exitPerimeter=0;" parent="1" source="6dfBTm71OyUCT0kCx_6O-4" target="nAx7xvZWWUwr8eBIahOH-7" edge="1">
          <mxGeometry relative="1" as="geometry" />
        </mxCell>
        <mxCell id="nAx7xvZWWUwr8eBIahOH-83" style="rounded=0;orthogonalLoop=1;jettySize=auto;html=1;entryX=1;entryY=0.5;entryDx=0;entryDy=0;exitX=0;exitY=0.3333333333333333;exitDx=0;exitDy=0;exitPerimeter=0;" parent="1" source="6dfBTm71OyUCT0kCx_6O-4" target="nAx7xvZWWUwr8eBIahOH-78" edge="1">
          <mxGeometry relative="1" as="geometry" />
        </mxCell>
        <mxCell id="nAx7xvZWWUwr8eBIahOH-85" style="rounded=0;orthogonalLoop=1;jettySize=auto;html=1;entryX=1;entryY=0.5;entryDx=0;entryDy=0;exitX=0;exitY=0.3333333333333333;exitDx=0;exitDy=0;exitPerimeter=0;" parent="1" source="6dfBTm71OyUCT0kCx_6O-4" target="nAx7xvZWWUwr8eBIahOH-84" edge="1">
          <mxGeometry relative="1" as="geometry" />
        </mxCell>
        <mxCell id="6dfBTm71OyUCT0kCx_6O-4" value="&lt;font style=&quot;font-size: 16px;&quot;&gt;社会组织&lt;/font&gt;&lt;div&gt;&lt;font style=&quot;font-size: 16px;&quot;&gt;（用户群体）2&lt;/font&gt;&lt;/div&gt;" style="shape=umlActor;verticalLabelPosition=bottom;verticalAlign=top;html=1;outlineConnect=0;" parent="1" vertex="1">
          <mxGeometry x="1635" y="-360" width="30" height="60" as="geometry" />
        </mxCell>
        <mxCell id="6dfBTm71OyUCT0kCx_6O-6" value="&lt;div&gt;&lt;font style=&quot;font-size: 16px;&quot;&gt;&lt;br&gt;&lt;/font&gt;&lt;/div&gt;&lt;font style=&quot;font-size: 16px;&quot;&gt;社会组织管理员登录&lt;/font&gt;" style="ellipse;whiteSpace=wrap;html=1;" parent="1" vertex="1">
          <mxGeometry x="-140" y="-620" width="120" height="80" as="geometry" />
        </mxCell>
        <mxCell id="6dfBTm71OyUCT0kCx_6O-7" value="&lt;font style=&quot;font-size: 16px;&quot;&gt;社会组织登录&lt;/font&gt;" style="ellipse;whiteSpace=wrap;html=1;" parent="1" vertex="1">
          <mxGeometry x="1402" y="-755" width="120" height="80" as="geometry" />
        </mxCell>
        <mxCell id="6dfBTm71OyUCT0kCx_6O-9" value="&lt;font style=&quot;font-size: 16px;&quot;&gt;活动申报&lt;/font&gt;" style="ellipse;whiteSpace=wrap;html=1;" parent="1" vertex="1">
          <mxGeometry x="828" y="-1263" width="120" height="80" as="geometry" />
        </mxCell>
        <mxCell id="nAx7xvZWWUwr8eBIahOH-10" style="rounded=0;orthogonalLoop=1;jettySize=auto;html=1;entryX=0;entryY=0.5;entryDx=0;entryDy=0;exitX=1;exitY=0.5;exitDx=0;exitDy=0;endArrow=open;endFill=0;dashed=1;" parent="1" source="6dfBTm71OyUCT0kCx_6O-10" target="nAx7xvZWWUwr8eBIahOH-7" edge="1">
          <mxGeometry relative="1" as="geometry">
            <mxPoint x="1494" y="-414" as="sourcePoint" />
          </mxGeometry>
        </mxCell>
        <mxCell id="6dfBTm71OyUCT0kCx_6O-10" value="&lt;font style=&quot;font-size: 16px;&quot;&gt;项目申报&lt;/font&gt;" style="ellipse;whiteSpace=wrap;html=1;" parent="1" vertex="1">
          <mxGeometry x="1230" y="-375" width="120" height="80" as="geometry" />
        </mxCell>
        <mxCell id="nAx7xvZWWUwr8eBIahOH-33" style="rounded=0;orthogonalLoop=1;jettySize=auto;html=1;entryX=0;entryY=0.5;entryDx=0;entryDy=0;exitX=1;exitY=0.5;exitDx=0;exitDy=0;endArrow=open;endFill=0;dashed=1;" parent="1" source="6dfBTm71OyUCT0kCx_6O-11" target="nAx7xvZWWUwr8eBIahOH-7" edge="1">
          <mxGeometry relative="1" as="geometry" />
        </mxCell>
        <mxCell id="6dfBTm71OyUCT0kCx_6O-11" value="&lt;span style=&quot;font-size: 16px;&quot;&gt;活动管理&lt;/span&gt;" style="ellipse;whiteSpace=wrap;html=1;" parent="1" vertex="1">
          <mxGeometry x="1232" y="-205" width="120" height="80" as="geometry" />
        </mxCell>
        <mxCell id="6dfBTm71OyUCT0kCx_6O-13" value="&lt;span style=&quot;font-size: 16px;&quot;&gt;模板管理&lt;/span&gt;" style="ellipse;whiteSpace=wrap;html=1;" parent="1" vertex="1">
          <mxGeometry x="-90" y="-930" width="120" height="80" as="geometry" />
        </mxCell>
        <mxCell id="6dfBTm71OyUCT0kCx_6O-15" value="&lt;font style=&quot;font-size: 16px;&quot;&gt;专家库管理&lt;/font&gt;" style="ellipse;whiteSpace=wrap;html=1;" parent="1" vertex="1">
          <mxGeometry x="-100" y="-1306" width="120" height="80" as="geometry" />
        </mxCell>
        <mxCell id="nAx7xvZWWUwr8eBIahOH-5" style="rounded=0;orthogonalLoop=1;jettySize=auto;html=1;entryX=1;entryY=0.5;entryDx=0;entryDy=0;exitX=0;exitY=0.5;exitDx=0;exitDy=0;dashed=1;endArrow=open;endFill=0;" parent="1" source="nAx7xvZWWUwr8eBIahOH-2" target="6dfBTm71OyUCT0kCx_6O-13" edge="1">
          <mxGeometry relative="1" as="geometry">
            <mxPoint x="27" y="-227" as="targetPoint" />
          </mxGeometry>
        </mxCell>
        <mxCell id="nAx7xvZWWUwr8eBIahOH-2" value="&lt;div&gt;&lt;font style=&quot;font-size: 16px;&quot;&gt;&lt;br&gt;&lt;/font&gt;&lt;/div&gt;&lt;font style=&quot;font-size: 16px;&quot;&gt;项目申报模板管理&lt;/font&gt;" style="ellipse;whiteSpace=wrap;html=1;" parent="1" vertex="1">
          <mxGeometry x="60" y="-1063" width="120" height="80" as="geometry" />
        </mxCell>
        <mxCell id="nAx7xvZWWUwr8eBIahOH-6" style="rounded=0;orthogonalLoop=1;jettySize=auto;html=1;entryX=1;entryY=0.5;entryDx=0;entryDy=0;dashed=1;endArrow=open;endFill=0;exitX=0;exitY=0.5;exitDx=0;exitDy=0;" parent="1" source="nAx7xvZWWUwr8eBIahOH-3" target="6dfBTm71OyUCT0kCx_6O-13" edge="1">
          <mxGeometry relative="1" as="geometry">
            <mxPoint x="30" y="-226.4117647058822" as="targetPoint" />
          </mxGeometry>
        </mxCell>
        <mxCell id="nAx7xvZWWUwr8eBIahOH-3" value="&lt;div&gt;&lt;font style=&quot;font-size: 16px;&quot;&gt;&lt;br&gt;&lt;/font&gt;&lt;/div&gt;&lt;font style=&quot;font-size: 16px;&quot;&gt;活动细节模板管理&lt;/font&gt;" style="ellipse;whiteSpace=wrap;html=1;" parent="1" vertex="1">
          <mxGeometry x="50" y="-800" width="119" height="80" as="geometry" />
        </mxCell>
        <mxCell id="nAx7xvZWWUwr8eBIahOH-7" value="&lt;font style=&quot;font-size: 16px;&quot;&gt;项目管理&lt;/font&gt;" style="ellipse;whiteSpace=wrap;html=1;" parent="1" vertex="1">
          <mxGeometry x="1399" y="-325" width="120" height="80" as="geometry" />
        </mxCell>
        <mxCell id="nAx7xvZWWUwr8eBIahOH-13" style="rounded=0;orthogonalLoop=1;jettySize=auto;html=1;entryX=1;entryY=0.5;entryDx=0;entryDy=0;exitX=0;exitY=0.5;exitDx=0;exitDy=0;dashed=1;endArrow=open;endFill=0;" parent="1" source="nAx7xvZWWUwr8eBIahOH-11" target="6dfBTm71OyUCT0kCx_6O-15" edge="1">
          <mxGeometry relative="1" as="geometry" />
        </mxCell>
        <mxCell id="nAx7xvZWWUwr8eBIahOH-11" value="&lt;font style=&quot;font-size: 16px;&quot;&gt;邀请专家&lt;/font&gt;" style="ellipse;whiteSpace=wrap;html=1;" parent="1" vertex="1">
          <mxGeometry x="110" y="-1350" width="120" height="80" as="geometry" />
        </mxCell>
        <mxCell id="nAx7xvZWWUwr8eBIahOH-14" value="&lt;font style=&quot;font-size: 16px;&quot;&gt;查看项目库&lt;/font&gt;" style="ellipse;whiteSpace=wrap;html=1;" parent="1" vertex="1">
          <mxGeometry x="-137" y="35" width="120" height="80" as="geometry" />
        </mxCell>
        <mxCell id="nAx7xvZWWUwr8eBIahOH-17" value="&lt;span style=&quot;font-size: 16px;&quot;&gt;查看待优化项目&lt;/span&gt;" style="ellipse;whiteSpace=wrap;html=1;" parent="1" vertex="1">
          <mxGeometry x="-137" y="137" width="120" height="80" as="geometry" />
        </mxCell>
        <mxCell id="nAx7xvZWWUwr8eBIahOH-24" style="rounded=0;orthogonalLoop=1;jettySize=auto;html=1;entryX=1;entryY=0.5;entryDx=0;entryDy=0;exitX=0;exitY=0.5;exitDx=0;exitDy=0;endArrow=open;endFill=0;dashed=1;" parent="1" source="nAx7xvZWWUwr8eBIahOH-21" target="nAx7xvZWWUwr8eBIahOH-17" edge="1">
          <mxGeometry relative="1" as="geometry" />
        </mxCell>
        <mxCell id="nAx7xvZWWUwr8eBIahOH-21" value="&lt;span style=&quot;font-size: 16px;&quot;&gt;进行优化&lt;/span&gt;" style="ellipse;whiteSpace=wrap;html=1;" parent="1" vertex="1">
          <mxGeometry x="74" y="139" width="120" height="80" as="geometry" />
        </mxCell>
        <mxCell id="nAx7xvZWWUwr8eBIahOH-25" value="&lt;font style=&quot;font-size: 16px;&quot;&gt;项目管理&lt;/font&gt;" style="ellipse;whiteSpace=wrap;html=1;" parent="1" vertex="1">
          <mxGeometry x="-140" y="-500" width="120" height="80" as="geometry" />
        </mxCell>
        <mxCell id="nAx7xvZWWUwr8eBIahOH-29" style="rounded=0;orthogonalLoop=1;jettySize=auto;html=1;entryX=1;entryY=0.5;entryDx=0;entryDy=0;exitX=0;exitY=0.5;exitDx=0;exitDy=0;dashed=1;endArrow=open;endFill=0;" parent="1" source="nAx7xvZWWUwr8eBIahOH-27" target="nAx7xvZWWUwr8eBIahOH-25" edge="1">
          <mxGeometry relative="1" as="geometry" />
        </mxCell>
        <mxCell id="nAx7xvZWWUwr8eBIahOH-27" value="&lt;div&gt;&lt;font style=&quot;font-size: 16px;&quot;&gt;&lt;br&gt;&lt;/font&gt;&lt;/div&gt;&lt;font style=&quot;font-size: 16px;&quot;&gt;导出项目书为文档&lt;/font&gt;" style="ellipse;whiteSpace=wrap;html=1;" parent="1" vertex="1">
          <mxGeometry x="63" y="-452" width="120" height="80" as="geometry" />
        </mxCell>
        <mxCell id="nAx7xvZWWUwr8eBIahOH-37" style="rounded=0;orthogonalLoop=1;jettySize=auto;html=1;entryX=0;entryY=0.5;entryDx=0;entryDy=0;dashed=1;endArrow=open;endFill=0;exitX=1;exitY=0.5;exitDx=0;exitDy=0;" parent="1" source="nAx7xvZWWUwr8eBIahOH-36" target="6dfBTm71OyUCT0kCx_6O-11" edge="1">
          <mxGeometry relative="1" as="geometry" />
        </mxCell>
        <mxCell id="nAx7xvZWWUwr8eBIahOH-36" value="&lt;font style=&quot;font-size: 16px;&quot;&gt;上传活动细节&lt;/font&gt;" style="ellipse;whiteSpace=wrap;html=1;" parent="1" vertex="1">
          <mxGeometry x="1082" y="-205" width="120" height="80" as="geometry" />
        </mxCell>
        <mxCell id="nAx7xvZWWUwr8eBIahOH-40" style="rounded=0;orthogonalLoop=1;jettySize=auto;html=1;entryX=1;entryY=0.5;entryDx=0;entryDy=0;exitX=0;exitY=0.5;exitDx=0;exitDy=0;dashed=1;endArrow=open;endFill=0;" parent="1" source="nAx7xvZWWUwr8eBIahOH-38" target="nAx7xvZWWUwr8eBIahOH-2" edge="1">
          <mxGeometry relative="1" as="geometry" />
        </mxCell>
        <mxCell id="nAx7xvZWWUwr8eBIahOH-38" value="&lt;div&gt;&lt;font style=&quot;font-size: 16px;&quot;&gt;&lt;br&gt;&lt;/font&gt;&lt;/div&gt;&lt;font style=&quot;font-size: 16px;&quot;&gt;制作项目申报模板&lt;/font&gt;" style="ellipse;whiteSpace=wrap;html=1;" parent="1" vertex="1">
          <mxGeometry x="221" y="-1150" width="120" height="80" as="geometry" />
        </mxCell>
        <mxCell id="nAx7xvZWWUwr8eBIahOH-43" style="rounded=0;orthogonalLoop=1;jettySize=auto;html=1;entryX=1;entryY=0.5;entryDx=0;entryDy=0;dashed=1;endArrow=open;endFill=0;" parent="1" source="nAx7xvZWWUwr8eBIahOH-41" target="nAx7xvZWWUwr8eBIahOH-2" edge="1">
          <mxGeometry relative="1" as="geometry" />
        </mxCell>
        <mxCell id="nAx7xvZWWUwr8eBIahOH-41" value="&lt;div&gt;&lt;font style=&quot;font-size: 16px;&quot;&gt;&lt;br&gt;&lt;/font&gt;&lt;/div&gt;&lt;font style=&quot;font-size: 16px;&quot;&gt;启用项目申报模板&lt;/font&gt;" style="ellipse;whiteSpace=wrap;html=1;" parent="1" vertex="1">
          <mxGeometry x="220" y="-1060" width="120" height="80" as="geometry" />
        </mxCell>
        <mxCell id="nAx7xvZWWUwr8eBIahOH-44" style="rounded=0;orthogonalLoop=1;jettySize=auto;html=1;entryX=1;entryY=0.5;entryDx=0;entryDy=0;exitX=0;exitY=0.5;exitDx=0;exitDy=0;dashed=1;endArrow=open;endFill=0;" parent="1" source="nAx7xvZWWUwr8eBIahOH-42" target="nAx7xvZWWUwr8eBIahOH-2" edge="1">
          <mxGeometry relative="1" as="geometry" />
        </mxCell>
        <mxCell id="nAx7xvZWWUwr8eBIahOH-42" value="&lt;font style=&quot;font-size: 16px;&quot;&gt;归档模板&lt;/font&gt;" style="ellipse;whiteSpace=wrap;html=1;" parent="1" vertex="1">
          <mxGeometry x="221" y="-968" width="120" height="80" as="geometry" />
        </mxCell>
        <mxCell id="nAx7xvZWWUwr8eBIahOH-45" style="rounded=0;orthogonalLoop=1;jettySize=auto;html=1;entryX=1;entryY=0.5;entryDx=0;entryDy=0;exitX=0;exitY=0.5;exitDx=0;exitDy=0;dashed=1;endArrow=open;endFill=0;" parent="1" source="nAx7xvZWWUwr8eBIahOH-46" target="nAx7xvZWWUwr8eBIahOH-3" edge="1">
          <mxGeometry relative="1" as="geometry">
            <mxPoint x="131" y="-334" as="targetPoint" />
            <mxPoint x="222" y="-454.9999999999998" as="sourcePoint" />
          </mxGeometry>
        </mxCell>
        <mxCell id="nAx7xvZWWUwr8eBIahOH-46" value="&lt;div&gt;&lt;font style=&quot;font-size: 16px;&quot;&gt;&lt;br&gt;&lt;/font&gt;&lt;/div&gt;&lt;font style=&quot;font-size: 16px;&quot;&gt;制作活动细节模板&lt;/font&gt;" style="ellipse;whiteSpace=wrap;html=1;" parent="1" vertex="1">
          <mxGeometry x="223" y="-880" width="120" height="80" as="geometry" />
        </mxCell>
        <mxCell id="nAx7xvZWWUwr8eBIahOH-47" style="rounded=0;orthogonalLoop=1;jettySize=auto;html=1;entryX=1;entryY=0.5;entryDx=0;entryDy=0;exitX=0;exitY=0.5;exitDx=0;exitDy=0;dashed=1;endArrow=open;endFill=0;" parent="1" source="nAx7xvZWWUwr8eBIahOH-48" target="nAx7xvZWWUwr8eBIahOH-3" edge="1">
          <mxGeometry relative="1" as="geometry">
            <mxPoint x="131" y="-334" as="targetPoint" />
          </mxGeometry>
        </mxCell>
        <mxCell id="nAx7xvZWWUwr8eBIahOH-48" value="&lt;div&gt;&lt;font style=&quot;font-size: 16px;&quot;&gt;&lt;br&gt;&lt;/font&gt;&lt;/div&gt;&lt;font style=&quot;font-size: 16px;&quot;&gt;启用活动细节模板&lt;/font&gt;" style="ellipse;whiteSpace=wrap;html=1;" parent="1" vertex="1">
          <mxGeometry x="220" y="-791" width="120" height="80" as="geometry" />
        </mxCell>
        <mxCell id="nAx7xvZWWUwr8eBIahOH-49" style="rounded=0;orthogonalLoop=1;jettySize=auto;html=1;exitX=0;exitY=0.5;exitDx=0;exitDy=0;dashed=1;endArrow=open;endFill=0;entryX=1;entryY=0.5;entryDx=0;entryDy=0;" parent="1" source="nAx7xvZWWUwr8eBIahOH-50" edge="1" target="nAx7xvZWWUwr8eBIahOH-3">
          <mxGeometry relative="1" as="geometry">
            <mxPoint x="124" y="-463" as="targetPoint" />
          </mxGeometry>
        </mxCell>
        <mxCell id="nAx7xvZWWUwr8eBIahOH-50" value="&lt;font style=&quot;font-size: 16px;&quot;&gt;归档模板&lt;/font&gt;" style="ellipse;whiteSpace=wrap;html=1;" parent="1" vertex="1">
          <mxGeometry x="223" y="-703" width="120" height="80" as="geometry" />
        </mxCell>
        <mxCell id="nAx7xvZWWUwr8eBIahOH-53" style="rounded=0;orthogonalLoop=1;jettySize=auto;html=1;entryX=1;entryY=0.5;entryDx=0;entryDy=0;exitX=0;exitY=0.5;exitDx=0;exitDy=0;dashed=1;endArrow=open;endFill=0;" parent="1" source="nAx7xvZWWUwr8eBIahOH-52" target="6dfBTm71OyUCT0kCx_6O-15" edge="1">
          <mxGeometry relative="1" as="geometry" />
        </mxCell>
        <mxCell id="nAx7xvZWWUwr8eBIahOH-52" value="&lt;font style=&quot;font-size: 16px;&quot;&gt;移除专家&lt;/font&gt;" style="ellipse;whiteSpace=wrap;html=1;" parent="1" vertex="1">
          <mxGeometry x="110" y="-1264" width="120" height="80" as="geometry" />
        </mxCell>
        <mxCell id="nAx7xvZWWUwr8eBIahOH-55" style="rounded=0;orthogonalLoop=1;jettySize=auto;html=1;entryX=1;entryY=0.5;entryDx=0;entryDy=0;dashed=1;endArrow=open;endFill=0;exitX=0;exitY=0.5;exitDx=0;exitDy=0;" parent="1" source="nAx7xvZWWUwr8eBIahOH-54" target="nAx7xvZWWUwr8eBIahOH-25" edge="1">
          <mxGeometry relative="1" as="geometry" />
        </mxCell>
        <mxCell id="nAx7xvZWWUwr8eBIahOH-54" value="&lt;div&gt;&lt;font style=&quot;font-size: 16px;&quot;&gt;&lt;br&gt;&lt;/font&gt;&lt;/div&gt;&lt;font style=&quot;font-size: 16px;&quot;&gt;查看区域所有项目&lt;/font&gt;" style="ellipse;whiteSpace=wrap;html=1;" parent="1" vertex="1">
          <mxGeometry x="60" y="-544" width="120" height="80" as="geometry" />
        </mxCell>
        <mxCell id="nAx7xvZWWUwr8eBIahOH-58" style="rounded=0;orthogonalLoop=1;jettySize=auto;html=1;entryX=1;entryY=0.5;entryDx=0;entryDy=0;dashed=1;endArrow=open;endFill=0;" parent="1" source="nAx7xvZWWUwr8eBIahOH-56" target="nAx7xvZWWUwr8eBIahOH-54" edge="1">
          <mxGeometry relative="1" as="geometry" />
        </mxCell>
        <mxCell id="nAx7xvZWWUwr8eBIahOH-56" value="&lt;div&gt;&lt;font style=&quot;font-size: 16px;&quot;&gt;&lt;br&gt;&lt;/font&gt;&lt;/div&gt;&lt;font style=&quot;font-size: 16px;&quot;&gt;查看项目全部活动&lt;/font&gt;" style="ellipse;whiteSpace=wrap;html=1;" parent="1" vertex="1">
          <mxGeometry x="221" y="-541" width="120" height="80" as="geometry" />
        </mxCell>
        <mxCell id="nAx7xvZWWUwr8eBIahOH-59" style="rounded=0;orthogonalLoop=1;jettySize=auto;html=1;entryX=1;entryY=0.5;entryDx=0;entryDy=0;dashed=1;endArrow=open;endFill=0;" parent="1" source="nAx7xvZWWUwr8eBIahOH-57" target="nAx7xvZWWUwr8eBIahOH-27" edge="1">
          <mxGeometry relative="1" as="geometry" />
        </mxCell>
        <mxCell id="nAx7xvZWWUwr8eBIahOH-57" value="&lt;div&gt;&lt;font style=&quot;font-size: 16px;&quot;&gt;&lt;br&gt;&lt;/font&gt;&lt;/div&gt;&lt;font style=&quot;font-size: 16px;&quot;&gt;导出项目活动细节文档&lt;/font&gt;" style="ellipse;whiteSpace=wrap;html=1;" parent="1" vertex="1">
          <mxGeometry x="222" y="-452" width="120" height="80" as="geometry" />
        </mxCell>
        <mxCell id="nAx7xvZWWUwr8eBIahOH-62" value="&lt;font style=&quot;font-size: 16px;&quot;&gt;专家接受邀请&lt;/font&gt;" style="ellipse;whiteSpace=wrap;html=1;" parent="1" vertex="1">
          <mxGeometry x="-137" y="-230" width="120" height="80" as="geometry" />
        </mxCell>
        <mxCell id="nAx7xvZWWUwr8eBIahOH-63" value="&lt;font style=&quot;font-size: 16px;&quot;&gt;专家登录&lt;/font&gt;" style="ellipse;whiteSpace=wrap;html=1;" parent="1" vertex="1">
          <mxGeometry x="-138" y="-144" width="120" height="80" as="geometry" />
        </mxCell>
        <mxCell id="nAx7xvZWWUwr8eBIahOH-66" value="&lt;font style=&quot;font-size: 16px;&quot;&gt;信息管理&lt;/font&gt;" style="ellipse;whiteSpace=wrap;html=1;" parent="1" vertex="1">
          <mxGeometry x="-137" y="-55" width="120" height="80" as="geometry" />
        </mxCell>
        <mxCell id="nAx7xvZWWUwr8eBIahOH-70" style="rounded=0;orthogonalLoop=1;jettySize=auto;html=1;entryX=1;entryY=0.5;entryDx=0;entryDy=0;dashed=1;endArrow=open;endFill=0;exitX=0;exitY=0.5;exitDx=0;exitDy=0;" parent="1" source="nAx7xvZWWUwr8eBIahOH-68" target="nAx7xvZWWUwr8eBIahOH-66" edge="1">
          <mxGeometry relative="1" as="geometry" />
        </mxCell>
        <mxCell id="nAx7xvZWWUwr8eBIahOH-68" value="&lt;font style=&quot;font-size: 16px;&quot;&gt;修改名称&lt;/font&gt;" style="ellipse;whiteSpace=wrap;html=1;" parent="1" vertex="1">
          <mxGeometry x="87" y="-145" width="120" height="80" as="geometry" />
        </mxCell>
        <mxCell id="nAx7xvZWWUwr8eBIahOH-71" style="rounded=0;orthogonalLoop=1;jettySize=auto;html=1;entryX=1;entryY=0.5;entryDx=0;entryDy=0;dashed=1;endArrow=open;endFill=0;exitX=0;exitY=0.5;exitDx=0;exitDy=0;" parent="1" source="nAx7xvZWWUwr8eBIahOH-69" target="nAx7xvZWWUwr8eBIahOH-66" edge="1">
          <mxGeometry relative="1" as="geometry" />
        </mxCell>
        <mxCell id="nAx7xvZWWUwr8eBIahOH-69" value="&lt;font style=&quot;font-size: 16px;&quot;&gt;修改密码&lt;/font&gt;" style="ellipse;whiteSpace=wrap;html=1;" parent="1" vertex="1">
          <mxGeometry x="87" y="-56" width="120" height="80" as="geometry" />
        </mxCell>
        <mxCell id="nAx7xvZWWUwr8eBIahOH-78" value="&lt;font style=&quot;font-size: 16px;&quot;&gt;信息管理&lt;/font&gt;" style="ellipse;whiteSpace=wrap;html=1;" parent="1" vertex="1">
          <mxGeometry x="1402" y="-535" width="120" height="80" as="geometry" />
        </mxCell>
        <mxCell id="nAx7xvZWWUwr8eBIahOH-79" style="rounded=0;orthogonalLoop=1;jettySize=auto;html=1;entryX=0;entryY=0.5;entryDx=0;entryDy=0;dashed=1;endArrow=open;endFill=0;exitX=1;exitY=0.5;exitDx=0;exitDy=0;" parent="1" source="nAx7xvZWWUwr8eBIahOH-80" target="nAx7xvZWWUwr8eBIahOH-78" edge="1">
          <mxGeometry relative="1" as="geometry" />
        </mxCell>
        <mxCell id="nAx7xvZWWUwr8eBIahOH-80" value="&lt;font style=&quot;font-size: 16px;&quot;&gt;修改名称&lt;/font&gt;" style="ellipse;whiteSpace=wrap;html=1;" parent="1" vertex="1">
          <mxGeometry x="1232" y="-585" width="120" height="80" as="geometry" />
        </mxCell>
        <mxCell id="nAx7xvZWWUwr8eBIahOH-81" style="rounded=0;orthogonalLoop=1;jettySize=auto;html=1;dashed=1;endArrow=open;endFill=0;exitX=1;exitY=0.5;exitDx=0;exitDy=0;" parent="1" source="nAx7xvZWWUwr8eBIahOH-82" edge="1">
          <mxGeometry relative="1" as="geometry">
            <mxPoint x="1400" y="-495" as="targetPoint" />
          </mxGeometry>
        </mxCell>
        <mxCell id="nAx7xvZWWUwr8eBIahOH-82" value="&lt;font style=&quot;font-size: 16px;&quot;&gt;修改密码&lt;/font&gt;" style="ellipse;whiteSpace=wrap;html=1;" parent="1" vertex="1">
          <mxGeometry x="1232" y="-485" width="120" height="80" as="geometry" />
        </mxCell>
        <mxCell id="nAx7xvZWWUwr8eBIahOH-84" value="&lt;span style=&quot;font-size: 16px;&quot;&gt;社会组织注册&lt;/span&gt;" style="ellipse;whiteSpace=wrap;html=1;" parent="1" vertex="1">
          <mxGeometry x="1402" y="-645" width="120" height="80" as="geometry" />
        </mxCell>
        <mxCell id="nAx7xvZWWUwr8eBIahOH-86" value="&lt;font style=&quot;font-size: 16px;&quot;&gt;社会组织管理&lt;/font&gt;" style="ellipse;whiteSpace=wrap;html=1;" parent="1" vertex="1">
          <mxGeometry x="-140" y="-350" width="120" height="80" as="geometry" />
        </mxCell>
        <mxCell id="nAx7xvZWWUwr8eBIahOH-90" style="rounded=0;orthogonalLoop=1;jettySize=auto;html=1;entryX=1;entryY=0.5;entryDx=0;entryDy=0;endArrow=open;endFill=0;dashed=1;exitX=0;exitY=0.5;exitDx=0;exitDy=0;" parent="1" source="nAx7xvZWWUwr8eBIahOH-88" target="nAx7xvZWWUwr8eBIahOH-86" edge="1">
          <mxGeometry relative="1" as="geometry" />
        </mxCell>
        <mxCell id="nAx7xvZWWUwr8eBIahOH-88" value="&lt;div&gt;&lt;font style=&quot;font-size: 16px;&quot;&gt;&lt;br&gt;&lt;/font&gt;&lt;/div&gt;&lt;font style=&quot;font-size: 16px;&quot;&gt;查看所有社会组织&lt;/font&gt;" style="ellipse;whiteSpace=wrap;html=1;" parent="1" vertex="1">
          <mxGeometry x="60" y="-346" width="120" height="80" as="geometry" />
        </mxCell>
        <mxCell id="nAx7xvZWWUwr8eBIahOH-91" value="&lt;div&gt;&lt;font style=&quot;font-size: 16px;&quot;&gt;&lt;br&gt;&lt;/font&gt;&lt;/div&gt;&lt;font style=&quot;font-size: 16px;&quot;&gt;禁用社会组织账号&lt;/font&gt;" style="ellipse;whiteSpace=wrap;html=1;" parent="1" vertex="1">
          <mxGeometry x="220" y="-346" width="120" height="85" as="geometry" />
        </mxCell>
        <mxCell id="paF9IsCoqRaDz2D7nvKr-4" style="rounded=0;orthogonalLoop=1;jettySize=auto;html=1;entryX=0;entryY=0.5;entryDx=0;entryDy=0;dashed=1;exitX=1;exitY=0.5;exitDx=0;exitDy=0;" edge="1" parent="1" source="paF9IsCoqRaDz2D7nvKr-2" target="6dfBTm71OyUCT0kCx_6O-10">
          <mxGeometry relative="1" as="geometry" />
        </mxCell>
        <mxCell id="paF9IsCoqRaDz2D7nvKr-2" value="&lt;font style=&quot;font-size: 16px;&quot;&gt;AI美化项目字段&lt;/font&gt;" style="ellipse;whiteSpace=wrap;html=1;" vertex="1" parent="1">
          <mxGeometry x="1082" y="-415" width="120" height="80" as="geometry" />
        </mxCell>
        <mxCell id="paF9IsCoqRaDz2D7nvKr-6" style="rounded=0;orthogonalLoop=1;jettySize=auto;html=1;entryX=0;entryY=0.5;entryDx=0;entryDy=0;dashed=1;" edge="1" parent="1" source="paF9IsCoqRaDz2D7nvKr-5" target="6dfBTm71OyUCT0kCx_6O-10">
          <mxGeometry relative="1" as="geometry" />
        </mxCell>
        <mxCell id="paF9IsCoqRaDz2D7nvKr-5" value="&lt;span style=&quot;font-size: 16px;&quot;&gt;专家优化项目&lt;/span&gt;&lt;div&gt;&lt;span style=&quot;font-size: 16px;&quot;&gt;VIP&lt;/span&gt;&lt;/div&gt;" style="ellipse;whiteSpace=wrap;html=1;" vertex="1" parent="1">
          <mxGeometry x="1082" y="-315" width="120" height="80" as="geometry" />
        </mxCell>
        <mxCell id="paF9IsCoqRaDz2D7nvKr-9" style="rounded=0;orthogonalLoop=1;jettySize=auto;html=1;entryX=0;entryY=0.5;entryDx=0;entryDy=0;exitX=1;exitY=0.3333333333333333;exitDx=0;exitDy=0;exitPerimeter=0;" edge="1" parent="1" source="paF9IsCoqRaDz2D7nvKr-7" target="paF9IsCoqRaDz2D7nvKr-8">
          <mxGeometry relative="1" as="geometry" />
        </mxCell>
        <mxCell id="paF9IsCoqRaDz2D7nvKr-10" style="rounded=0;orthogonalLoop=1;jettySize=auto;html=1;entryX=0;entryY=0.5;entryDx=0;entryDy=0;" edge="1" parent="1" source="paF9IsCoqRaDz2D7nvKr-7" target="6dfBTm71OyUCT0kCx_6O-15">
          <mxGeometry relative="1" as="geometry" />
        </mxCell>
        <mxCell id="paF9IsCoqRaDz2D7nvKr-11" style="rounded=0;orthogonalLoop=1;jettySize=auto;html=1;entryX=0;entryY=0.5;entryDx=0;entryDy=0;exitX=1;exitY=0.3333333333333333;exitDx=0;exitDy=0;exitPerimeter=0;" edge="1" parent="1" source="paF9IsCoqRaDz2D7nvKr-7" target="6dfBTm71OyUCT0kCx_6O-13">
          <mxGeometry relative="1" as="geometry" />
        </mxCell>
        <mxCell id="paF9IsCoqRaDz2D7nvKr-7" value="&lt;span style=&quot;font-size: 16px;&quot;&gt;系统管理员&lt;/span&gt;&lt;div&gt;&lt;span style=&quot;font-size: 16px;&quot;&gt;（内部）0&lt;/span&gt;&lt;/div&gt;" style="shape=umlActor;verticalLabelPosition=bottom;verticalAlign=top;html=1;outlineConnect=0;" vertex="1" parent="1">
          <mxGeometry x="-280" y="-1120" width="30" height="60" as="geometry" />
        </mxCell>
        <mxCell id="paF9IsCoqRaDz2D7nvKr-8" value="&lt;div&gt;&lt;span style=&quot;font-size: 16px; background-color: initial;&quot;&gt;系统管理员登录&lt;/span&gt;&lt;br&gt;&lt;/div&gt;" style="ellipse;whiteSpace=wrap;html=1;" vertex="1" parent="1">
          <mxGeometry x="-100" y="-1420" width="120" height="80" as="geometry" />
        </mxCell>
        <mxCell id="paF9IsCoqRaDz2D7nvKr-13" value="&lt;h1 style=&quot;margin-top: 0px;&quot;&gt;移除的功能&lt;/h1&gt;&lt;p&gt;&lt;font style=&quot;font-size: 17px;&quot;&gt;因后续讨论不再需要此功能&lt;/font&gt;&lt;/p&gt;" style="text;html=1;whiteSpace=wrap;overflow=hidden;rounded=0;" vertex="1" parent="1">
          <mxGeometry x="826" y="-1389" width="180" height="120" as="geometry" />
        </mxCell>
        <mxCell id="paF9IsCoqRaDz2D7nvKr-14" value="&lt;h1 style=&quot;margin-top: 0px;&quot;&gt;&lt;font&gt;系统管理员介绍&lt;/font&gt;&lt;/h1&gt;&lt;p&gt;&lt;font style=&quot;font-size: 17px;&quot;&gt;系统管理员是系统运营内部人员，负责管理系统的整体维护运营和问题收集&lt;/font&gt;&lt;/p&gt;" style="text;html=1;whiteSpace=wrap;overflow=hidden;rounded=0;" vertex="1" parent="1">
          <mxGeometry x="-673" y="-1124" width="357" height="136" as="geometry" />
        </mxCell>
        <mxCell id="paF9IsCoqRaDz2D7nvKr-16" value="&lt;h1 style=&quot;margin-top: 0px;&quot;&gt;&lt;font&gt;专家库管理&lt;/font&gt;&lt;/h1&gt;&lt;p&gt;&lt;font style=&quot;font-size: 17px;&quot;&gt;因专家属于内部人员，故专家库由系统管理员管理，负责专家的邀请和监督，后期可以扩展专家业绩等功能&lt;/font&gt;&lt;/p&gt;" style="text;html=1;whiteSpace=wrap;overflow=hidden;rounded=0;" vertex="1" parent="1">
          <mxGeometry x="245" y="-1336" width="294" height="127" as="geometry" />
        </mxCell>
        <mxCell id="paF9IsCoqRaDz2D7nvKr-17" value="&lt;h1 style=&quot;margin-top: 0px;&quot;&gt;模板管理&lt;/h1&gt;&lt;p&gt;&lt;font style=&quot;font-size: 17px;&quot;&gt;这一部分是系统管理员管理用户提交项目用的模板，目前处于暂定状态，因为模板如果不需要改变，则可以将模板并入系统内部逻辑而不作为功能单独处理，这样会加快开发速度。&lt;/font&gt;&lt;/p&gt;" style="text;html=1;whiteSpace=wrap;overflow=hidden;rounded=0;" vertex="1" parent="1">
          <mxGeometry x="354" y="-1123" width="303" height="299" as="geometry" />
        </mxCell>
        <mxCell id="paF9IsCoqRaDz2D7nvKr-18" value="&lt;h1 style=&quot;margin-top: 0px;&quot;&gt;社会组织管理员介绍&lt;/h1&gt;&lt;p&gt;&lt;font style=&quot;font-size: 17px;&quot;&gt;社会组织管理员是政府管理社会组织用的账号，由政府掌控，主要可以导出社会组织的数据，包括提交的项目和活动记录（涉及隐私问题，还需要进一步讨论）&lt;/font&gt;&lt;/p&gt;" style="text;html=1;whiteSpace=wrap;overflow=hidden;rounded=0;" vertex="1" parent="1">
          <mxGeometry x="-691" y="-503" width="333" height="299" as="geometry" />
        </mxCell>
        <mxCell id="paF9IsCoqRaDz2D7nvKr-19" value="&lt;h1 style=&quot;margin-top: 0px;&quot;&gt;项目管理（部分暂定）&lt;/h1&gt;&lt;p&gt;&lt;span style=&quot;font-size: 17px;&quot;&gt;查看社会组织对政府申报的项目，导出和录入评审状态等。&lt;/span&gt;&lt;/p&gt;&lt;p&gt;&lt;span style=&quot;font-size: 17px;&quot;&gt;目前活动细节政府可见性还需要进一步讨论，故导出活动细节文档功能暂定&lt;/span&gt;&lt;/p&gt;" style="text;html=1;whiteSpace=wrap;overflow=hidden;rounded=0;" vertex="1" parent="1">
          <mxGeometry x="359" y="-550" width="286" height="211" as="geometry" />
        </mxCell>
        <mxCell id="paF9IsCoqRaDz2D7nvKr-21" style="rounded=0;orthogonalLoop=1;jettySize=auto;html=1;dashed=1;endArrow=open;endFill=0;entryX=1;entryY=0.5;entryDx=0;entryDy=0;exitX=0;exitY=0.5;exitDx=0;exitDy=0;" edge="1" parent="1" source="paF9IsCoqRaDz2D7nvKr-20" target="nAx7xvZWWUwr8eBIahOH-25">
          <mxGeometry relative="1" as="geometry">
            <mxPoint x="9" y="-503" as="targetPoint" />
          </mxGeometry>
        </mxCell>
        <mxCell id="paF9IsCoqRaDz2D7nvKr-20" value="&lt;div&gt;&lt;font style=&quot;font-size: 16px;&quot;&gt;录入评审结果&lt;/font&gt;&lt;/div&gt;" style="ellipse;whiteSpace=wrap;html=1;" vertex="1" parent="1">
          <mxGeometry x="65" y="-630" width="120" height="80" as="geometry" />
        </mxCell>
        <mxCell id="paF9IsCoqRaDz2D7nvKr-22" value="&lt;h1 style=&quot;margin-top: 0px;&quot;&gt;社会组织管理（暂定）&lt;/h1&gt;&lt;p&gt;&lt;span style=&quot;font-size: 17px;&quot;&gt;对于政府是否具有操作社会组织账号的权限我们还需要进一步探讨，故此功能暂定&lt;/span&gt;&lt;/p&gt;" style="text;html=1;whiteSpace=wrap;overflow=hidden;rounded=0;" vertex="1" parent="1">
          <mxGeometry x="358" y="-335" width="299" height="113" as="geometry" />
        </mxCell>
        <mxCell id="paF9IsCoqRaDz2D7nvKr-23" value="&lt;h1 style=&quot;margin-top: 0px;&quot;&gt;专家接受邀请&lt;/h1&gt;&lt;p&gt;&lt;span style=&quot;font-size: 17px;&quot;&gt;因为专家具有特殊权限且为内部人员，故专家只允许邀请才能加入&lt;/span&gt;&lt;/p&gt;" style="text;html=1;whiteSpace=wrap;overflow=hidden;rounded=0;" vertex="1" parent="1">
          <mxGeometry x="-8" y="-247" width="299" height="113" as="geometry" />
        </mxCell>
        <mxCell id="paF9IsCoqRaDz2D7nvKr-24" value="&lt;h1 style=&quot;margin-top: 0px;&quot;&gt;专家介绍&lt;/h1&gt;&lt;p&gt;&lt;span style=&quot;font-size: 17px;&quot;&gt;专家是系统的核心之一，主要负责完成付费用户的项目优化任务&lt;/span&gt;&lt;/p&gt;" style="text;html=1;whiteSpace=wrap;overflow=hidden;rounded=0;" vertex="1" parent="1">
          <mxGeometry x="-692" y="-63" width="323" height="113" as="geometry" />
        </mxCell>
        <mxCell id="paF9IsCoqRaDz2D7nvKr-25" value="&lt;h1 style=&quot;margin-top: 0px;&quot;&gt;查看项目库&lt;/h1&gt;&lt;p&gt;&lt;span style=&quot;font-size: 17px;&quot;&gt;之前探讨过专家评审的同时也要和专家共享项目库，故设计了此功能&lt;/span&gt;&lt;/p&gt;" style="text;html=1;whiteSpace=wrap;overflow=hidden;rounded=0;" vertex="1" parent="1">
          <mxGeometry x="4" y="24" width="299" height="113" as="geometry" />
        </mxCell>
        <mxCell id="paF9IsCoqRaDz2D7nvKr-26" value="&lt;h1 style=&quot;margin-top: 0px;&quot;&gt;查看待优化项目&lt;/h1&gt;&lt;p&gt;&lt;span style=&quot;font-size: 17px;&quot;&gt;因为需求有变，据我们的理解专家优化项目为专家主要负责且必须完成的工作&lt;/span&gt;&lt;/p&gt;" style="text;html=1;whiteSpace=wrap;overflow=hidden;rounded=0;" vertex="1" parent="1">
          <mxGeometry x="203" y="127" width="299" height="113" as="geometry" />
        </mxCell>
        <mxCell id="paF9IsCoqRaDz2D7nvKr-27" value="&lt;h1 style=&quot;margin-top: 0px;&quot;&gt;社会组织介绍&lt;/h1&gt;&lt;p&gt;&lt;span style=&quot;font-size: 17px;&quot;&gt;社会组织是系统的核心用户之一，通常为民间草根公益组织，缺乏管理资料的经验，主要对社会组织提供优化和管理资料功能&lt;/span&gt;&lt;/p&gt;" style="text;html=1;whiteSpace=wrap;overflow=hidden;rounded=0;" vertex="1" parent="1">
          <mxGeometry x="1714" y="-377" width="299" height="180" as="geometry" />
        </mxCell>
        <mxCell id="paF9IsCoqRaDz2D7nvKr-28" value="&lt;h1 style=&quot;margin-top: 0px;&quot;&gt;社会组织注册（暂定）&lt;/h1&gt;&lt;p&gt;&lt;span style=&quot;font-size: 17px;&quot;&gt;目前根据需求社会组织可以随意注册，但是是否加入政府可以自由选择。目前关于如何加入政府管理还需要进一步探讨&lt;/span&gt;&lt;/p&gt;" style="text;html=1;whiteSpace=wrap;overflow=hidden;rounded=0;" vertex="1" parent="1">
          <mxGeometry x="1068" y="-768" width="299" height="136" as="geometry" />
        </mxCell>
        <mxCell id="paF9IsCoqRaDz2D7nvKr-29" value="&lt;h1 style=&quot;margin-top: 0px;&quot;&gt;项目申报&lt;/h1&gt;&lt;p&gt;&lt;span style=&quot;font-size: 17px;&quot;&gt;核心功能，为用户提供便捷的项目申报服务，并且出售专家VIP修改和AI美化功能，此部分仍需要详细设计。&lt;/span&gt;&lt;/p&gt;" style="text;html=1;whiteSpace=wrap;overflow=hidden;rounded=0;" vertex="1" parent="1">
          <mxGeometry x="776" y="-398" width="299" height="136" as="geometry" />
        </mxCell>
        <mxCell id="paF9IsCoqRaDz2D7nvKr-30" value="&lt;h1 style=&quot;margin-top: 0px;&quot;&gt;活动管理&lt;/h1&gt;&lt;p&gt;&lt;span style=&quot;font-size: 17px;&quot;&gt;此部分经后续讨论之后，保留作为用户便于管理资料的功能，解决用户资料保留不全的痛点。目前对政府公开性还需要进一步讨论。&lt;/span&gt;&lt;/p&gt;" style="text;html=1;whiteSpace=wrap;overflow=hidden;rounded=0;" vertex="1" parent="1">
          <mxGeometry x="768" y="-223" width="299" height="136" as="geometry" />
        </mxCell>
      </root>
    </mxGraphModel>
  </diagram>
</mxfile>
